<svg width="40" height="41" viewBox="0 0 40 41" fill="none" xmlns="http://www.w3.org/2000/svg">
<g id="bot&#195;&#163;o_add_sugest&#195;&#163;o">
<circle id="Ellipse 2" cx="20" cy="20.8184" r="20" fill="#D9D9D9"/>
<path id="Vector" d="M20.8761 19.2613L20.8849 11.1698C20.8849 10.8151 20.744 10.4749 20.4931 10.224C20.2422 9.97313 19.902 9.83218 19.5472 9.83216C19.1925 9.83213 18.8523 9.97303 18.6015 10.2239C18.3506 10.4747 18.2097 10.8149 18.2098 11.1697L18.2197 19.2611L10.1283 19.2511C9.77351 19.2511 9.4333 19.392 9.18247 19.6428C8.93164 19.8937 8.79074 20.2339 8.79076 20.5886C8.79079 20.9434 8.93174 21.2836 9.1826 21.5345C9.43347 21.7854 9.7737 21.9263 10.1284 21.9263L18.2199 21.9175L18.2111 30.009C18.2104 30.1848 18.2445 30.3591 18.3115 30.5217C18.3785 30.6843 18.477 30.8321 18.6013 30.9564C18.7257 31.0808 18.8734 31.1793 19.036 31.2463C19.1987 31.3132 19.3729 31.3474 19.5488 31.3467C19.7246 31.3474 19.8989 31.3133 20.0615 31.2463C20.2241 31.1794 20.3718 31.0809 20.4962 30.9566C20.6205 30.8322 20.719 30.6845 20.786 30.5219C20.8529 30.3593 20.887 30.185 20.8863 30.0092L20.8763 21.9177L28.9678 21.9277C29.1436 21.9284 29.3179 21.8943 29.4805 21.8274C29.6431 21.7604 29.7908 21.6619 29.9152 21.5376C30.0395 21.4132 30.138 21.2655 30.2049 21.1029C30.2719 20.9403 30.306 20.766 30.3053 20.5902C30.306 20.4143 30.2718 20.2401 30.2049 20.0774C30.1379 19.9148 30.0394 19.7671 29.915 19.6427C29.7907 19.5184 29.6429 19.4198 29.4803 19.3529C29.3177 19.2859 29.1434 19.2518 28.9676 19.2525L20.8761 19.2613Z" fill="black"/>
</g>
</svg>
